<svg width="73" height="28" viewBox="0 0 73 28" fill="none" xmlns="http://www.w3.org/2000/svg">
<path d="M40.1377 4.9375V22H36.6221L29.7666 10.5625V22H26.251V4.9375H29.7666L36.6338 16.3867V4.9375H40.1377ZM46.5479 9.32031V22H43.1611V9.32031H46.5479ZM42.9502 6.01562C42.9502 5.52344 43.1221 5.11719 43.4658 4.79688C43.8096 4.47656 44.2705 4.31641 44.8486 4.31641C45.4189 4.31641 45.876 4.47656 46.2197 4.79688C46.5713 5.11719 46.7471 5.52344 46.7471 6.01562C46.7471 6.50781 46.5713 6.91406 46.2197 7.23438C45.876 7.55469 45.4189 7.71484 44.8486 7.71484C44.2705 7.71484 43.8096 7.55469 43.4658 7.23438C43.1221 6.91406 42.9502 6.50781 42.9502 6.01562ZM56.1924 18.4961C56.1924 18.2539 56.1221 18.0352 55.9814 17.8398C55.8408 17.6445 55.5791 17.4648 55.1963 17.3008C54.8213 17.1289 54.2783 16.9727 53.5674 16.832C52.9268 16.6914 52.3291 16.5156 51.7744 16.3047C51.2275 16.0859 50.751 15.8242 50.3447 15.5195C49.9463 15.2148 49.6338 14.8555 49.4072 14.4414C49.1807 14.0195 49.0674 13.5391 49.0674 13C49.0674 12.4688 49.1807 11.9688 49.4072 11.5C49.6416 11.0312 49.9736 10.6172 50.4033 10.2578C50.8408 9.89062 51.3721 9.60547 51.9971 9.40234C52.6299 9.19141 53.3408 9.08594 54.1299 9.08594C55.2314 9.08594 56.1768 9.26172 56.9658 9.61328C57.7627 9.96484 58.3721 10.4492 58.7939 11.0664C59.2236 11.6758 59.4385 12.3711 59.4385 13.1523H56.0635C56.0635 12.8242 55.9932 12.5312 55.8525 12.2734C55.7197 12.0078 55.5088 11.8008 55.2197 11.6523C54.9385 11.4961 54.5713 11.418 54.1182 11.418C53.7432 11.418 53.4189 11.4844 53.1455 11.6172C52.8721 11.7422 52.6611 11.9141 52.5127 12.1328C52.3721 12.3438 52.3018 12.5781 52.3018 12.8359C52.3018 13.0312 52.3408 13.207 52.4189 13.3633C52.5049 13.5117 52.6416 13.6484 52.8291 13.7734C53.0166 13.8984 53.2588 14.0156 53.5557 14.125C53.8604 14.2266 54.2354 14.3203 54.6807 14.4062C55.5947 14.5938 56.4111 14.8398 57.1299 15.1445C57.8486 15.4414 58.4189 15.8477 58.8408 16.3633C59.2627 16.8711 59.4736 17.5391 59.4736 18.3672C59.4736 18.9297 59.3486 19.4453 59.0986 19.9141C58.8486 20.3828 58.4893 20.793 58.0205 21.1445C57.5518 21.4883 56.9893 21.7578 56.333 21.9531C55.6846 22.1406 54.9541 22.2344 54.1416 22.2344C52.9619 22.2344 51.9619 22.0234 51.1416 21.6016C50.3291 21.1797 49.7119 20.6445 49.29 19.9961C48.876 19.3398 48.6689 18.668 48.6689 17.9805H51.8682C51.8838 18.4414 52.001 18.8125 52.2197 19.0938C52.4463 19.375 52.7314 19.5781 53.0752 19.7031C53.4268 19.8281 53.8057 19.8906 54.2119 19.8906C54.6494 19.8906 55.0127 19.832 55.3018 19.7148C55.5908 19.5898 55.8096 19.4258 55.958 19.2227C56.1143 19.0117 56.1924 18.7695 56.1924 18.4961ZM68.5088 19.1406V13.4922C68.5088 13.0859 68.4424 12.7383 68.3096 12.4492C68.1768 12.1523 67.9697 11.9219 67.6885 11.7578C67.415 11.5938 67.0596 11.5117 66.6221 11.5117C66.2471 11.5117 65.9229 11.5781 65.6494 11.7109C65.376 11.8359 65.165 12.0195 65.0166 12.2617C64.8682 12.4961 64.7939 12.7734 64.7939 13.0938H61.4189C61.4189 12.5547 61.5439 12.043 61.7939 11.5586C62.0439 11.0742 62.4072 10.6484 62.8838 10.2812C63.3604 9.90625 63.9268 9.61328 64.583 9.40234C65.2471 9.19141 65.9893 9.08594 66.8096 9.08594C67.7939 9.08594 68.6689 9.25 69.4346 9.57812C70.2002 9.90625 70.8018 10.3984 71.2393 11.0547C71.6846 11.7109 71.9072 12.5312 71.9072 13.5156V18.9414C71.9072 19.6367 71.9502 20.207 72.0361 20.6523C72.1221 21.0898 72.2471 21.4727 72.4111 21.8008V22H69.001C68.8369 21.6562 68.7119 21.2266 68.626 20.7109C68.5479 20.1875 68.5088 19.6641 68.5088 19.1406ZM68.9541 14.2773L68.9775 16.1875H67.0908C66.6455 16.1875 66.2588 16.2383 65.9307 16.3398C65.6025 16.4414 65.333 16.5859 65.1221 16.7734C64.9111 16.9531 64.7549 17.1641 64.6533 17.4062C64.5596 17.6484 64.5127 17.9141 64.5127 18.2031C64.5127 18.4922 64.5791 18.7539 64.7119 18.9883C64.8447 19.2148 65.0361 19.3945 65.2861 19.5273C65.5361 19.6523 65.8291 19.7148 66.165 19.7148C66.6729 19.7148 67.1143 19.6133 67.4893 19.4102C67.8643 19.207 68.1533 18.957 68.3564 18.6602C68.5674 18.3633 68.6768 18.082 68.6846 17.8164L69.5752 19.2461C69.4502 19.5664 69.2783 19.8984 69.0596 20.2422C68.8486 20.5859 68.5791 20.9102 68.251 21.2148C67.9229 21.5117 67.5283 21.7578 67.0674 21.9531C66.6064 22.1406 66.0596 22.2344 65.4268 22.2344C64.6221 22.2344 63.8916 22.0742 63.2354 21.7539C62.5869 21.4258 62.0713 20.9766 61.6885 20.4062C61.3135 19.8281 61.126 19.1719 61.126 18.4375C61.126 17.7734 61.251 17.1836 61.501 16.668C61.751 16.1523 62.1182 15.7188 62.6025 15.3672C63.0947 15.0078 63.708 14.7383 64.4424 14.5586C65.1768 14.3711 66.0283 14.2773 66.9971 14.2773H68.9541Z" fill="white"/>
<path d="M18.9091 24.3161L0 5.1582H6.30303L14.1068 13.0646V5.1582H18.9091V24.3161Z" fill="#FF3C78"/>
<path d="M0.727539 14.1367L4.1531 17.6536L7.57866 21.1705H0.727539V14.1367Z" fill="#FF3C78"/>
</svg>
